<svg width="4" height="4" viewBox="0 0 40 40" fill="none" xmlns="http://www.w3.org/2000/svg">
<path d="M20 8C19.5863 7.99997 19.1827 8.12825 18.8449 8.36717C18.5072 8.60608 18.2518 8.94388 18.114 9.334C18.0193 9.57562 17.8343 9.77096 17.5983 9.87873C17.3622 9.9865 17.0934 9.99826 16.8488 9.91153C16.6042 9.8248 16.4029 9.64638 16.2874 9.41395C16.172 9.18153 16.1514 8.91332 16.23 8.666C16.4277 8.10779 16.7468 7.60043 17.1643 7.18055C17.5819 6.76066 18.0875 6.43872 18.6446 6.23797C19.2017 6.03722 19.7964 5.96267 20.3858 6.01969C20.9752 6.07671 21.5446 6.26389 22.0529 6.56771C22.5612 6.87153 22.9957 7.28442 23.325 7.77656C23.6543 8.26871 23.8703 8.82783 23.9572 9.41357C24.0442 9.99932 24.0001 10.5971 23.828 11.1637C23.6558 11.7303 23.3601 12.2516 22.962 12.69C22.7713 12.898 22.5907 13.09 22.42 13.266C22.106 13.594 21.82 13.89 21.556 14.234C21.172 14.734 21.002 15.134 21.002 15.5C21.0019 15.7719 21.0757 16.0388 21.2156 16.272C21.3555 16.5052 21.5561 16.696 21.796 16.824L34.148 23.412C34.8367 23.7794 35.3828 24.3665 35.6995 25.0799C36.0162 25.7933 36.0853 26.5921 35.8959 27.3494C35.7065 28.1066 35.2694 28.7787 34.6541 29.259C34.0388 29.7393 33.2806 30.0001 32.5 30H7.50001C6.71946 30.0001 5.96127 29.7393 5.34596 29.259C4.73066 28.7787 4.29356 28.1066 4.10414 27.3494C3.91472 26.5921 3.98385 25.7933 4.30055 25.0799C4.61725 24.3665 5.16334 23.7794 5.85201 23.412L16.53 17.718C16.6462 17.6509 16.7748 17.6078 16.908 17.5914C17.0412 17.575 17.1763 17.5855 17.3053 17.6224C17.4344 17.6594 17.5546 17.7219 17.659 17.8062C17.7634 17.8906 17.8497 17.9952 17.9128 18.1136C17.9759 18.232 18.0145 18.362 18.0264 18.4957C18.0382 18.6293 18.023 18.764 17.9817 18.8917C17.9404 19.0194 17.8738 19.1375 17.7859 19.2389C17.698 19.3403 17.5905 19.423 17.47 19.482L6.79401 25.176C6.49859 25.3333 6.26426 25.5849 6.12832 25.8907C5.99237 26.1966 5.96262 26.5391 6.0438 26.8638C6.12497 27.1885 6.31241 27.4767 6.57629 27.6826C6.84017 27.8885 7.16532 28.0002 7.50001 28H32.5C32.8347 28.0002 33.1599 27.8885 33.4237 27.6826C33.6876 27.4767 33.8751 27.1885 33.9562 26.8638C34.0374 26.5391 34.0077 26.1966 33.8717 25.8907C33.7358 25.5849 33.5014 25.3333 33.206 25.176L20.854 18.588C20.2945 18.2894 19.8266 17.8443 19.5004 17.3004C19.1742 16.7565 19.002 16.1342 19.002 15.5C19.002 14.486 19.476 13.656 19.97 13.014C20.3 12.586 20.72 12.148 21.076 11.774C21.228 11.618 21.3633 11.4747 21.482 11.344C21.7423 11.0571 21.9137 10.7008 21.9754 10.3184C22.0371 9.93593 21.9863 9.54381 21.8294 9.18965C21.6724 8.83549 21.416 8.53453 21.0912 8.32334C20.7665 8.11215 20.3874 7.99982 20 8Z" fill="black"/>
</svg>
